<svg width="360.68" height="66.27" data-name="Layer 1" version="1.1" viewBox="0 0 360.68 66.27" xmlns="http://www.w3.org/2000/svg" xmlns:cc="http://creativecommons.org/ns#" xmlns:dc="http://purl.org/dc/elements/1.1/" xmlns:rdf="http://www.w3.org/1999/02/22-rdf-syntax-ns#">
 <metadata>
  <rdf:RDF>
   <cc:Work rdf:about="">
    <dc:format>image/svg+xml</dc:format>
    <dc:type rdf:resource="http://purl.org/dc/dcmitype/StillImage"/>
    <dc:title/>
   </cc:Work>
  </rdf:RDF>
 </metadata>
 <defs>
  <style>.cls-1{fill:#cfaa58;}.cls-2{fill:#191919;}</style>
 </defs>
 <path class="cls-1" d="m18.429 0.77-3.69 6.39a1.55 1.55 0 0 0 1.34 2.32h34.66a1.53 1.53 0 0 1 1.34 0.77l1.81 3.13a1.54 1.54 0 0 1 0 1.55l-1.88 3.25a1.53 1.53 0 0 1-1.34 0.77h-41.85a1.53 1.53 0 0 0-1.33 0.78l-7.28 12.61a1.52 1.52 0 0 0 0 1.54l3.68 6.39a1.55 1.55 0 0 0 2.68 0l6.39-11.06a1.53 1.53 0 0 1 1.34-0.78h41.85a1.52 1.52 0 0 0 1.33-0.77l7.35-12.73a1.54 1.54 0 0 0 0-1.55l-7.27-12.61a1.55 1.55 0 0 0-1.34-0.77h-36.45a1.55 1.55 0 0 0-1.34 0.77z"/>
 <path class="cls-1" d="m11.149 52.84 3.69 6.38a1.54 1.54 0 0 0 2.67 0l11-19.11a1.55 1.55 0 0 0-1.34-2.32h-7.33a1.55 1.55 0 0 0-1.34 0.77l-7.35 12.73a1.54 1.54 0 0 0 0 1.55z"/>
 <path class="cls-1" d="m26.959 66.22h7.38a1.55 1.55 0 0 0 1.34-0.77l14.66-25.34a1.55 1.55 0 0 0-1.34-2.32h-7.37a1.53 1.53 0 0 0-1.34 0.77l-14.63 25.34a1.55 1.55 0 0 0 1.3 2.32z"/>
 <path class="cls-1" d="m69.409 25.95-21.91 38a1.55 1.55 0 0 0 1.34 2.32h7.38a1.55 1.55 0 0 0 1.34-0.77l18.22-31.57a1.52 1.52 0 0 0 0-1.54l-3.69-6.39a1.55 1.55 0 0 0-2.68-0.05z"/>
 <path class="cls-2" d="m99.019 47.63v-29h10.91a11 11 0 0 1 7.52 2.6 8.58 8.58 0 0 1 2.95 6.77 8.68 8.68 0 0 1-2.95 6.78 10.84 10.84 0 0 1-7.52 2.64h-5v10.25zm5.94-15.44h5a4.35 4.35 0 0 0 3.23-1.17 4.14 4.14 0 0 0 1.17-3.06 4 4 0 0 0-1.21-3 4.47 4.47 0 0 0-3.19-1.14h-5z"/>
 <path class="cls-2" d="m132.19 47.63v-29h5.94v11.13h12.85v-11.17h5.94v29h-5.94v-12.48h-12.85v12.54z"/>
 <path class="cls-2" d="m193.97 18.59-10 17.6v11.44h-5.93v-11.4l-10-17.64h6.6l6.39 11.52 6.38-11.53z"/>
 <path class="cls-2" d="m202.42 41.73 4.09-3.08q3.07 4.23 7.13 4.23a4.81 4.81 0 0 0 3-0.86 2.83 2.83 0 0 0 1.1-2.35 2.46 2.46 0 0 0-0.75-1.92 12.8 12.8 0 0 0-2.94-1.69l-3.13-1.41q-7-3.12-7-8.36a7.37 7.37 0 0 1 2.73-6 10.46 10.46 0 0 1 6.91-2.27 10.86 10.86 0 0 1 5.72 1.48 10.53 10.53 0 0 1 3.87 4l-4.05 3.13q-2.24-3.34-5.54-3.35a4.26 4.26 0 0 0-2.6 0.75 2.44 2.44 0 0 0-1 2.07 2.31 2.31 0 0 0 0.73 1.78 10.34 10.34 0 0 0 2.66 1.56l3.3 1.45a15.87 15.87 0 0 1 5.45 3.63 7.11 7.11 0 0 1 1.72 4.87 7.82 7.82 0 0 1-2.86 6.31 11 11 0 0 1-7.3 2.4 12.7 12.7 0 0 1-6.58-1.72 12.56 12.56 0 0 1-4.66-4.65z"/>
 <path class="cls-2" d="m236.07 47.63v-29h5.94v29z"/>
 <path class="cls-2" d="m254.03 33.11a14.06 14.06 0 0 1 4.53-10.71 14.74 14.74 0 0 1 10.95-4.29 14.91 14.91 0 0 1 7.51 1.92 13.91 13.91 0 0 1 5.3 5.3l-4.49 3.17q-3.12-4.89-8.32-4.89a9 9 0 0 0-6.71 2.73 9.45 9.45 0 0 0-2.66 6.77 9.29 9.29 0 0 0 2.66 6.82 9.08 9.08 0 0 0 6.71 2.69q5.2 0 8.32-4.89l4.49 3.17a13.52 13.52 0 0 1-5.28 5.3 15.08 15.08 0 0 1-7.57 1.92 14.74 14.74 0 0 1-11-4.34 14 14 0 0 1-4.44-10.67z"/>
 <path class="cls-2" d="m294.15 35.62v-17h5.94v17.49a6.54 6.54 0 0 0 1.76 4.86 7 7 0 0 0 9.27 0 6.61 6.61 0 0 0 1.73-4.86v-17.52h5.94v17a12.26 12.26 0 0 1-3.47 9.11 13.15 13.15 0 0 1-17.71 0 12.26 12.26 0 0 1-3.46-9.08z"/>
 <path class="cls-2" d="m358.75 18.11h1.93v29.57h-5.94v-15.57l-7.3 9.15h-1.94l-7.3-9.15v15.49h-5.94v-29.49h1.93l12.28 15.71z"/>
</svg>
